<?xml version="1.0" encoding="UTF-8"?>
<svg width="40px" height="40px" viewBox="0 0 40 40" version="1.1" xmlns="http://www.w3.org/2000/svg" xmlns:xlink="http://www.w3.org/1999/xlink">
    <!-- Generator: Sketch 60.1 (88133) - https://sketch.com -->
    <title>Illustration /  Beet</title>
    <desc>Created with Sketch.</desc>
    <g id="Illustration-/--Beet" stroke="none" stroke-width="1" fill="none" fill-rule="evenodd">
        <g id="Bitmap" fill="#FF5500" fill-rule="nonzero">
            <g id="radish-7029_2a8ba80f-237e-4889-8db6-4153c88c7dc5" transform="translate(0.273504, 0.273504)">
                <path d="M24.2555963,14.9187985 C24.4946324,15.1577625 24.88211,15.1577625 25.1211461,14.9187985 L34.3030753,5.73686935 C34.5420392,5.49783322 34.5420392,5.11035563 34.3030753,4.8713195 C34.0640392,4.63235554 33.6765616,4.63235554 33.4375254,4.8713195 L24.2555963,14.0532487 C24.0166323,14.2922848 24.0166323,14.6797624 24.2555963,14.9187985 Z M26.296433,16.9596353 C26.4772189,17.1391342 26.750279,17.1878949 26.9820171,17.0820611 L38.2047831,11.9854782 C38.5116172,11.8451159 38.6470083,11.4829295 38.5074867,11.1757122 C38.3679652,10.8684948 38.006151,10.7321123 37.6985527,10.870792 L26.4763989,15.9698234 C26.2936736,16.0528431 26.163253,16.2201631 26.1273506,16.4176265 C26.0914481,16.61509 26.1546252,16.8176095 26.296433,16.9596353 Z M22.217208,12.8804103 C22.2691337,12.9316848 22.3298935,12.9731591 22.3965617,13.002836 C22.5446725,13.0700412 22.7134401,13.0755391 22.865611,13.0181162 C23.0177818,12.9606932 23.1408437,12.845071 23.2076321,12.6967717 L28.3066634,1.4740057 C28.4023609,1.27403899 28.3824639,1.03795858 28.2546474,0.856829768 C28.126831,0.675700951 27.9110723,0.577833481 27.6905978,0.600978597 C27.4701233,0.624123713 27.2793924,0.764663919 27.1919772,0.968387464 L22.0923337,12.1942141 C21.9868358,12.4266121 22.0366012,12.7000777 22.217208,12.8804103 L22.217208,12.8804103 Z" id="Shape"></path>
                <path d="M26.296433,16.9596353 C26.4772189,17.1391342 26.750279,17.1878949 26.9820171,17.0820611 L38.2047831,11.9854782 C38.5116172,11.8451159 38.6470083,11.4829295 38.5074867,11.1757122 C38.3679652,10.8684948 38.006151,10.7321123 37.6985527,10.870792 L26.4763989,15.9698234 C26.2936736,16.0528431 26.163253,16.2201631 26.1273506,16.4176265 C26.0914481,16.61509 26.1546252,16.8176095 26.296433,16.9596353 Z M22.3965617,13.002836 C22.5446725,13.0700412 22.7134401,13.0755391 22.865611,13.0181162 C23.0177818,12.9606932 23.1408437,12.845071 23.2076321,12.6967717 L28.3066634,1.4740057 C28.4023609,1.27403899 28.3824639,1.03795858 28.2546474,0.856829768 C28.126831,0.675700951 27.9110723,0.577833481 27.6905978,0.600978597 C27.4701233,0.624123713 27.2793924,0.764663919 27.1919772,0.968387464 L22.0923337,12.1942141 C21.9868358,12.4266121 22.0366012,12.7000777 22.217208,12.8804103 C22.2691337,12.9316848 22.3298935,12.9731591 22.3965617,13.002836 Z" id="Shape" opacity="0.1"></path>
                <path d="M0.791482295,37.5185869 C4.18022629,34.1280065 3.45056899,31.7725356 2.44055678,28.5135629 C2.31813105,28.1254733 2.19570533,27.7306504 2.08062515,27.3254212 C2.07407422,27.3028757 2.06876118,27.2799887 2.06470981,27.2568628 C0.805811762,23.896217 0.877408261,20.1817381 2.26487586,16.8721009 C3.28986245,14.4835962 5.04965321,12.4840776 7.28861538,11.1640016 C12.7977729,7.87442247 20.1286252,9.06317623 25.1186976,14.0538608 C30.10877,19.0445454 31.3011966,26.3766219 28.0103932,31.8845551 C26.6899006,34.1237769 24.6899789,35.8837594 22.3010696,36.9089068 C18.9930605,38.2951503 15.2809402,38.3678297 11.9212047,37.1121335 C11.8869157,37.106225 11.8531444,37.0976287 11.8202035,37.0864241 L11.2821425,36.8991127 C8.04398209,35.7672869 5.24716646,34.7903297 1.65519577,38.3847489 C1.41615964,38.6237128 1.02868204,38.6237128 0.78964591,38.3847489 C0.674945297,38.2696895 0.61068993,38.113752 0.611033,37.9512873 C0.611378826,37.7888226 0.676294832,37.6331589 0.791482295,37.5185869 L0.791482295,37.5185869 Z" id="Path"></path>
            </g>
        </g>
    </g>
</svg>