<?xml version="1.0" encoding="UTF-8"?>
<svg width="48px" height="40px" viewBox="0 0 48 40" version="1.1" xmlns="http://www.w3.org/2000/svg" xmlns:xlink="http://www.w3.org/1999/xlink">
    <!-- Generator: Sketch 60.1 (88133) - https://sketch.com -->
    <title>Illustration / Broccoli</title>
    <desc>Created with Sketch.</desc>
    <g id="Illustration-/-Broccoli" stroke="none" stroke-width="1" fill="none" fill-rule="evenodd">
        <g id="broccoli-7035_de854d48-0b51-4cf7-a6a9-2d07622a730e" fill="#5A7623" fill-rule="nonzero">
            <path d="M43.8964706,16.88 C45.3320699,14.4889928 44.7404647,11.4009217 42.52282,9.70979413 C40.3051752,8.01866661 37.17063,8.26525679 35.2447059,10.2823529 C34.9132553,5.18271448 30.8553781,1.11749979 25.7563468,0.776836882 C20.6573154,0.43617397 16.094727,3.92546105 15.0878431,8.93568627 C13.6379144,8.34291251 11.9878931,8.5120379 10.6883675,9.38662772 C9.38884199,10.2612175 8.6108955,11.7261316 8.61411765,13.292549 C8.61411765,13.3168627 8.62039216,13.3403922 8.62196078,13.3647059 C8.35916221,13.322945 8.09412478,13.2967555 7.82823529,13.2862745 C3.92975471,13.2862745 0.769411765,16.4466175 0.769411765,20.345098 C0.769411765,24.2435786 3.92975471,27.4039216 7.82823529,27.4039216 C8.17530959,27.3929069 8.52109173,27.3562052 8.8627451,27.2941176 C9.38565661,28.917833 10.7493067,30.1293407 12.4232993,30.4574211 C14.0972919,30.7855015 15.8173723,30.1783641 16.9145098,28.8721569 L16.9411765,28.8721569 L16.4392157,23.7647059 C20.2512239,25.0194984 24.44463,23.9099674 27.1372549,20.9341176 C28.1800147,22.9434098 29.858366,24.5511633 31.9105882,25.5066667 L31.1843137,29.1372549 C32.1413827,31.004596 34.0812159,32.1609775 36.1790253,32.1147232 C38.2768348,32.0684688 40.1638138,30.8277105 41.0376471,28.92 C41.2211765,28.9356863 41.3992157,28.974902 41.5866667,28.974902 C44.5975833,28.9786934 47.1858415,26.841158 47.7512736,23.8838078 C48.3167058,20.9264577 46.6995539,17.9848666 43.8996078,16.8776471 L43.8964706,16.88 Z" id="Path"></path>
            <path d="M27.1372549,20.9341176 C24.44463,23.9099674 20.2512239,25.0194984 16.4392157,23.7647059 L16.9427451,28.8752941 L18.0392157,39.9584314 L29.0196078,39.9584314 L31.1835294,29.134902 L31.9098039,25.5043137 C29.858242,24.5492726 28.1802276,22.942405 27.1372549,20.9341176 L27.1372549,20.9341176 Z" id="Path"></path>
        </g>
    </g>
</svg>