<?xml version="1.0" encoding="UTF-8"?>
<svg width="40px" height="40px" viewBox="0 0 40 40" version="1.1" xmlns="http://www.w3.org/2000/svg" xmlns:xlink="http://www.w3.org/1999/xlink">
    <!-- Generator: Sketch 60.1 (88133) - https://sketch.com -->
    <title>Illustration / Fish</title>
    <desc>Created with Sketch.</desc>
    <g id="Illustration-/-Fish" stroke="none" stroke-width="1" fill="none" fill-rule="evenodd">
        <g id="Bitmap" fill-rule="nonzero">
            <g id="seafood-7005_79aab6cb-a0c9-4d7a-81fd-6e4e7fecc77d">
                <path d="M25.0189807,2.70354751 C32.0382508,-1.00931046 39.6522693,0.328180602 39.6522693,0.328180602 C39.6522693,4.76312615 39.4860013,10.6367993 35.8131742,15.9852011 C34.5434214,15.7892153 33.3921884,15.4819986 32.3546004,15.0766605 C33.3922451,15.482245 34.5431469,15.789607 35.8124955,15.9858797 C33.8016702,18.9149119 30.7436955,21.6858197 26.0780106,23.9755682 C20.9205279,26.4554314 15.5209065,28.396457 9.96494063,29.7678039 C11.5258243,22.6610327 13.7945348,14.6414838 18.6061283,8.18960512 C20.2326829,6.00154 22.3111677,4.18923095 24.7003611,2.8758142 L24.7003611,2.8758142 Z" id="Combined-Shape" fill="#B4D9D5"></path>
                <path d="M35.817246,15.9865584 C36.0411989,19.3234562 34.3513727,25.6518215 30.926251,28.905246 C29.3341497,25.3966509 25.7685484,23.907025 26.0786892,23.9755682 M22.6807134,4.74887461 C14.9244788,4.74887461 9.10781191,10.6619091 9.10781191,10.6619091 C9.10781191,10.6619091 15.7822862,11.2767616 15.9743428,13.6710214" id="Shape" fill="#B4D9D5"></path>
                <circle id="Oval" fill="#FFFFFF" cx="32.5445066" cy="6.87970883" r="2.04545455"></circle>
                <path d="M8.73930763,39.6515907 C9.53875153,36.6153326 10.2126461,32.7674151 11.1261024,28.6073208 C7.49937038,29.5481152 3.81412517,30.2468495 0.0947266973,30.6989049 C0.0947266973,30.6989049 7.65754739,33.1746021 8.73930763,39.6515907 Z" id="Path" fill="#B4D9D5"></path>
            </g>
        </g>
    </g>
</svg>