<?xml version="1.0" encoding="UTF-8"?>
<svg width="1000px" height="400px" viewBox="0 0 1000 400" version="1.1" xmlns="http://www.w3.org/2000/svg" xmlns:xlink="http://www.w3.org/1999/xlink">
    <!-- Generator: Sketch 60.1 (88133) - https://sketch.com -->
    <title>Joro Logo</title>
    <desc>Created with Sketch.</desc>
    <defs>
        <polygon id="path-1" points="0.0848056537 0.883392226 141.351237 0.883392226 141.351237 392.848057 0.0848056537 392.848057"></polygon>
    </defs>
    <g id="Joro-Logo" stroke="none" stroke-width="1" fill="none" fill-rule="evenodd">
        <g id="Logo-/-Joro">
            <g id="Joro_Logotype_BW">
                <g id="Group-3" transform="translate(0.000000, 7.067138)">
                    <mask id="mask-2" fill="white">
                        <use xlink:href="#path-1"></use>
                    </mask>
                    <g id="Clip-2"></g>
                    <path d="M72.0084806,272.918728 C72.0084806,298.520141 68.8070671,309.721555 61.8727915,317.191519 C54.4042403,325.191519 43.2056537,328.925795 28.8028269,328.925795 C25.0699647,328.925795 15.4671378,327.858657 10.6671378,326.258657 L0,389.198587 C7.46572438,390.798587 20.8014134,392.932862 34.6699647,392.932862 C79.4742049,392.932862 106.677032,376.931449 122.679859,354.525795 C136.015548,335.327208 141.351237,311.857244 141.351237,272.918728 L141.351237,0.883392226 L72.0084806,0.883392226 L72.0084806,272.918728" id="Fill-1" fill="#FDB938" mask="url(#mask-2)"></path>
                </g>
                <path d="M600.563958,34.0876325 L600.563958,7.95053004 L533.886926,7.95053004 L533.886926,266.648763 L603.229682,266.648763 L603.229682,103.961837 C611.766784,88.4918728 635.769611,66.6233216 666.169611,66.6233216 C676.3053,66.6233216 686.440989,67.6904594 691.240989,69.2918728 L699.242403,4.74911661 C691.776678,3.6819788 685.908127,2.61625442 675.773852,2.61625442 C644.302473,2.61625442 616.031095,14.8848057 600.563958,34.0876325" id="Fill-4" fill="#FDB938"></path>
                <path d="M337.622615,206.94417 C299.159011,206.94417 267.978799,175.763958 267.978799,137.300353 C267.978799,98.8367491 299.159011,67.6551237 337.622615,67.6551237 C376.086219,67.6551237 407.267845,98.8367491 407.267845,137.300353 C407.267845,175.763958 376.086219,206.94417 337.622615,206.94417 Z M337.622615,0.257243816 C261.936396,0.257243816 200.580919,61.6127208 200.580919,137.300353 C200.580919,212.986572 261.936396,274.343463 337.622615,274.343463 C413.310247,274.343463 474.665724,212.986572 474.665724,137.300353 C474.665724,61.6127208 413.310247,0.257243816 337.622615,0.257243816 L337.622615,0.257243816 Z" id="Fill-5" fill="#FDB938"></path>
                <path d="M860.836749,206.94417 C822.373145,206.94417 791.191519,175.763958 791.191519,137.300353 C791.191519,98.8367491 822.373145,67.6551237 860.836749,67.6551237 C899.300353,67.6551237 930.480565,98.8367491 930.480565,137.300353 C930.480565,175.763958 899.300353,206.94417 860.836749,206.94417 Z M860.836749,0.257243816 C785.15053,0.257243816 723.79364,61.6127208 723.79364,137.300353 C723.79364,212.986572 785.15053,274.343463 860.836749,274.343463 C936.524382,274.343463 997.879859,212.986572 997.879859,137.300353 C997.879859,61.6127208 936.524382,0.257243816 860.836749,0.257243816 L860.836749,0.257243816 Z" id="Fill-6" fill="#FDB938"></path>
            </g>
        </g>
    </g>
</svg>