<?xml version="1.0" encoding="UTF-8"?>
<svg width="20px" height="40px" viewBox="0 0 20 40" version="1.1" xmlns="http://www.w3.org/2000/svg" xmlns:xlink="http://www.w3.org/1999/xlink">
    <!-- Generator: Sketch 60.1 (88133) - https://sketch.com -->
    <title>Illustration / Thermometer</title>
    <desc>Created with Sketch.</desc>
    <g id="Illustration-/-Thermometer" stroke="none" stroke-width="1" fill="none" fill-rule="evenodd">
        <g id="thermometer-low-8473_c6df42f0-8997-4b37-a17b-b61a2b2416ec" fill-rule="nonzero">
            <path d="M15.0819672,22.6360656 L15.0819672,5.24590164 C15.0819672,2.34867016 12.733297,0 9.83606557,0 C6.9388341,0 4.59016393,2.34867016 4.59016393,5.24590164 L4.59016393,22.6360656 C1.29841297,24.9281467 -0.124138998,29.0919548 1.0770229,32.9190256 C2.27818479,36.7460963 5.82492353,39.3502461 9.83606557,39.3502461 C13.8472076,39.3502461 17.3939464,36.7460963 18.5951083,32.9190256 C19.7962701,29.0919548 18.3737182,24.9281467 15.0819672,22.6360656 Z" id="Path" fill="#3D59E8"></path>
            <path d="M9.83606557,20.3278689 C10.1982195,20.3278689 10.4918033,20.6214526 10.4918033,20.9836066 L10.4925045,26.2827134 C12.3529551,26.5951846 13.7704918,28.2133621 13.7704918,30.162623 C13.7704918,32.3355466 12.0089892,34.0970492 9.83606557,34.0970492 C7.66314197,34.0970492 5.90163934,32.3355466 5.90163934,30.162623 C5.90163934,28.2133621 7.31917605,26.5951846 9.17962668,26.2827134 L9.18032787,20.9836066 C9.18032787,20.6214526 9.47391164,20.3278689 9.83606557,20.3278689 Z" id="Combined-Shape" fill="#FFFFFF"></path>
        </g>
    </g>
</svg>