<?xml version="1.0" encoding="UTF-8"?>
<svg width="179px" height="216px" viewBox="0 0 179 216" version="1.1" xmlns="http://www.w3.org/2000/svg" xmlns:xlink="http://www.w3.org/1999/xlink">
    <!-- Generator: Sketch 60.1 (88133) - https://sketch.com -->
    <title>Challenge Tree</title>
    <desc>Created with Sketch.</desc>
    <defs>
        <path d="M91.6691427,0 C120.599125,0 144.05151,23.5636072 144.05151,52.6307897 C144.05151,55.0771336 143.885392,57.4844945 143.563872,59.8421064 C164.163054,66.9255597 178.973088,86.5487824 178.973088,109.647479 C178.973088,133.387151 163.329708,153.455789 141.835123,160.014779 C141.278002,160.309921 136.271779,161.882947 128.984677,162.278268 C110.74746,163.267627 77.3288926,163.095624 57.1010879,162.278268 C48.0524619,161.912636 42.0268146,159.398887 40.8339256,158.861704 L40.798,158.845 L40.8476906,158.832141 C40.8522801,158.830604 40.8569378,158.829 40.8616639,158.82733 C17.0635995,150.432297 0,127.656148 0,100.87568 C0,74.3714748 16.713366,51.7893979 40.1284465,43.1885813 C44.5550502,18.627728 65.9469949,0 91.6691427,0 Z" id="path-1"></path>
    </defs>
    <g id="Challenge-Tree" stroke="none" stroke-width="1" fill="none" fill-rule="evenodd">
        <g id="Trees-/-Challenge">
            <g id="Group-7">
                <g id="Group-5" transform="translate(61.013553, 113.779125)">
                    <rect id="Rectangle" fill="#8C4E37" x="0" y="0" width="56.9459826" height="101.848322" rx="12.2217986"></rect>
                    <path d="M44.743272,0 C51.482643,-1.23800236e-15 56.9459826,5.46333961 56.9459826,12.2027106 L56.9459826,89.626523 C56.9459826,96.376436 51.474097,101.848322 44.724184,101.848322 L32.5405615,101.848322 L32.5405615,101.848322 L32.5405615,12.2027106 C32.5405615,5.46333961 38.0039011,1.23800236e-15 44.743272,0 Z" id="Rectangle" fill="#723C28"></path>
                </g>
                <path d="M93.5541142,12.2217986 C120.511598,12.2217986 142.364956,34.109341 142.364956,61.108993 C142.364956,63.3814637 142.210147,65.61772 141.910514,67.8077599 C161.10491,74.3865237 174.905518,92.6141485 174.905518,114.07012 C174.905518,136.121305 160.328599,154.762543 140.299413,160.85491 C139.78157,161.128656 135.116403,162.590072 128.325407,162.957315 C111.331637,163.876301 80.1916085,163.716532 61.3429723,162.957315 C52.9436033,162.61899 47.3395571,160.300605 46.1979094,159.789585 L46.1511404,159.768799 L46.1977611,159.756308 C46.2017526,159.754976 46.2057995,159.753589 46.2099018,159.752149 C24.0344688,151.952817 8.13514037,130.797184 8.13514037,105.922254 C8.13514037,81.3034469 23.7087433,60.3277389 45.5271038,52.3385686 C49.6524677,29.5244425 69.5858223,12.2217986 93.5541142,12.2217986 Z" id="Combined-Shape" fill="#22674C"></path>
                <g id="Combined-Shape-Copy">
                    <mask id="mask-2" fill="white">
                        <use xlink:href="#path-1"></use>
                    </mask>
                    <use id="Mask" fill="#22674C" xlink:href="#path-1"></use>
                    <path d="M67.2637216,0 C96.1937042,0 119.646089,23.5636072 119.646089,52.6307897 C119.646089,55.0771336 119.479971,57.4844945 119.158451,59.8421064 C139.757633,66.9255597 154.567667,86.5487824 154.567667,109.647479 C154.567667,133.387151 138.924287,153.455789 117.429702,160.014779 C116.872581,160.309921 111.866358,161.882947 104.579256,162.278268 C86.3420392,163.267627 52.9234715,163.095624 32.6956668,162.278268 C23.6470408,161.912636 17.6213935,159.398887 16.4285045,158.861704 L16.3925789,158.845 L16.4422695,158.832141 C16.4468589,158.830604 16.4515167,158.829 16.4562428,158.82733 C-7.34182165,150.432297 -24.4054211,127.656148 -24.4054211,100.87568 C-24.4054211,74.3714748 -7.69205512,51.7893979 15.7230254,43.1885813 C20.1496291,18.627728 41.5415738,0 67.2637216,0 Z" fill="#328062" mask="url(#mask-2)"></path>
                </g>
            </g>
        </g>
    </g>
</svg>